# xmcd
#
# Track frame offsets:
#	150
#	16328
#	32070
#	49085
#	65142
#	80320
#	95638
#	120476
#	143067
#	154387
#	171701
#	192137
#
# Disc length: 2850 seconds
#
# Revision: 5
# Processed by: cddbd v1.5.2PL0 Copyright (c) Steve Scherf et al.
# Submitted via: audiograbber 1.83.01
#
DISCID=a50b200c
DTITLE=Josh Turner - Everything Is Fine
DYEAR=2007
DGENRE=Country
TTITLE0=Everything Is Fine
TTITLE1=Firecracker
TTITLE2=Another Try (Featuring Trisha Yearwood)
TTITLE3=So Not My Baby
TTITLE4=Trailerhood
TTITLE5=Baby, I Go Crazy
TTITLE6=Nowhere Fast (Duet With Anthony Hamilton)
TTITLE7=The Longer The Waiting (The Sweeter The Kiss)
TTITLE8=One Woman Man
TTITLE9=Soulmate
TTITLE10=The Way He Was Raised
TTITLE11=South Carolina Low Country
EXTD=
EXTT0=
EXTT1=
EXTT2=
EXTT3=
EXTT4=
EXTT5=
EXTT6=
EXTT7=
EXTT8=
EXTT9=
EXTT10=
EXTT11=
PLAYORDER=
